REM DIRINDEX 1\2,1\3,1\4,1\5,1\6
REM DIRNAME cjc129,folder01,folder02,folder03,folder04,folder05
TITLE ""
FILE "DISC4Track30.mp3" MP3
  TRACK 01 AUDIO
    TITLE "0:"
    INDEX 01 00:00:00
  TRACK 02 AUDIO
    TITLE "3:cjc129_3736"
    INDEX 01 00:00:07
  TRACK 03 AUDIO
    TITLE "0:"
    INDEX 01 00:01:13
  TRACK 04 AUDIO
    TITLE "5:cjc129_3737"
    INDEX 01 00:01:46
  TRACK 05 AUDIO
    TITLE "0:"
    INDEX 01 00:06:63
  TRACK 06 AUDIO
    TITLE "4:cjc129_3738"
    INDEX 01 00:07:56
  TRACK 07 AUDIO
    TITLE "0:"
    INDEX 01 00:08:64
  TRACK 08 AUDIO
    TITLE "6:cjc129_3739"
    INDEX 01 00:09:22
  TRACK 09 AUDIO
    TITLE "0:"
    INDEX 01 00:12:18
  TRACK 10 AUDIO
    TITLE "3:cjc129_3740"
    INDEX 01 00:13:69
  TRACK 11 AUDIO
    TITLE "0:"
    INDEX 01 00:17:31
  TRACK 12 AUDIO
    TITLE "5:cjc129_3741"
    INDEX 01 00:17:61
  TRACK 13 AUDIO
    TITLE "0:"
    INDEX 01 00:19:73
  TRACK 14 AUDIO
    TITLE "4:cjc129_3742"
    INDEX 01 00:20:63
  TRACK 15 AUDIO
    TITLE "0:"
    INDEX 01 00:24:24
  TRACK 16 AUDIO
    TITLE "6:cjc129_3743"
    INDEX 01 00:24:55
  TRACK 17 AUDIO
    TITLE "0:"
    INDEX 01 00:28:19
  TRACK 18 AUDIO
    TITLE "3:cjc129_3744"
    INDEX 01 00:29:68
  TRACK 19 AUDIO
    TITLE "0:"
    INDEX 01 00:32:74
  TRACK 20 AUDIO
    TITLE "5:cjc129_3745"
    INDEX 01 00:33:32
  TRACK 21 AUDIO
    TITLE "0:"
    INDEX 01 00:34:73
  TRACK 22 AUDIO
    TITLE "4:cjc129_3746"
    INDEX 01 00:35:64
  TRACK 23 AUDIO
    TITLE "0:"
    INDEX 01 00:38:69
  TRACK 24 AUDIO
    TITLE "6:cjc129_3747"
    INDEX 01 00:39:27
  TRACK 25 AUDIO
    TITLE "0:"
    INDEX 01 00:43:54
  TRACK 26 AUDIO
    TITLE "3:cjc129_3748"
    INDEX 01 00:45:30
  TRACK 27 AUDIO
    TITLE "0:"
    INDEX 01 00:47:09
  TRACK 28 AUDIO
    TITLE "5:cjc129_3749"
    INDEX 01 00:47:42
  TRACK 29 AUDIO
    TITLE "0:"
    INDEX 01 00:50:52
  TRACK 30 AUDIO
    TITLE "4:cjc129_3750"
    INDEX 01 00:51:42
  TRACK 31 AUDIO
    TITLE "0:"
    INDEX 01 00:53:21
  TRACK 32 AUDIO
    TITLE "6:cjc129_3751"
    INDEX 01 00:53:53
  TRACK 33 AUDIO
    TITLE "0:"
    INDEX 01 00:57:70
  TRACK 34 AUDIO
    TITLE "3:cjc129_3752"
    INDEX 01 00:59:47
  TRACK 35 AUDIO
    TITLE "0:"
    INDEX 01 01:01:07
  TRACK 36 AUDIO
    TITLE "5:cjc129_3753"
    INDEX 01 01:01:38
  TRACK 37 AUDIO
    TITLE "0:"
    INDEX 01 01:07:70
  TRACK 38 AUDIO
    TITLE "4:cjc129_3754"
    INDEX 01 01:08:64
  TRACK 39 AUDIO
    TITLE "0:"
    INDEX 01 01:10:22
  TRACK 40 AUDIO
    TITLE "6:cjc129_3755"
    INDEX 01 01:10:55
  TRACK 41 AUDIO
    TITLE "0:"
    INDEX 01 01:14:23
  TRACK 42 AUDIO
    TITLE "3:cjc129_3756"
    INDEX 01 01:15:72
  TRACK 43 AUDIO
    TITLE "0:"
    INDEX 01 01:17:39
  TRACK 44 AUDIO
    TITLE "5:cjc129_3757"
    INDEX 01 01:17:69
  TRACK 45 AUDIO
    TITLE "0:"
    INDEX 01 01:19:54
  TRACK 46 AUDIO
    TITLE "4:cjc129_3758"
    INDEX 01 01:20:44
  TRACK 47 AUDIO
    TITLE "0:"
    INDEX 01 01:22:11
  TRACK 48 AUDIO
    TITLE "6:cjc129_3759"
    INDEX 01 01:22:42
  TRACK 49 AUDIO
    TITLE "0:"
    INDEX 01 01:27:36
  TRACK 50 AUDIO
    TITLE "3:cjc129_3760"
    INDEX 01 01:29:11
  TRACK 51 AUDIO
    TITLE "0:"
    INDEX 01 01:32:35
  TRACK 52 AUDIO
    TITLE "5:cjc129_3761"
    INDEX 01 01:32:64
  TRACK 53 AUDIO
    TITLE "0:"
    INDEX 01 01:34:59
  TRACK 54 AUDIO
    TITLE "4:cjc129_3762"
    INDEX 01 01:35:53
  TRACK 55 AUDIO
    TITLE "0:"
    INDEX 01 01:38:73
  TRACK 56 AUDIO
    TITLE "6:cjc129_3763"
    INDEX 01 01:39:31
  TRACK 57 AUDIO
    TITLE "0:"
    INDEX 01 01:44:73
  TRACK 58 AUDIO
    TITLE "3:cjc129_3764"
    INDEX 01 01:46:51
  TRACK 59 AUDIO
    TITLE "0:"
    INDEX 01 01:48:28
  TRACK 60 AUDIO
    TITLE "5:cjc129_3765"
    INDEX 01 01:48:58
  TRACK 61 AUDIO
    TITLE "0:"
    INDEX 01 01:50:70
  TRACK 62 AUDIO
    TITLE "4:cjc129_3766"
    INDEX 01 01:51:60
  TRACK 63 AUDIO
    TITLE "0:"
    INDEX 01 01:53:37
  TRACK 64 AUDIO
    TITLE "6:cjc129_3767"
    INDEX 01 01:53:67
  TRACK 65 AUDIO
    TITLE "0:"
    INDEX 01 01:56:39
